<svg width="257" height="36" viewBox="0 0 257 36" fill="none" xmlns="http://www.w3.org/2000/svg">
  <path d="M36 18C36 20.3638 35.5344 22.7044 34.6298 24.8883C33.7252 27.0722 32.3994 29.0565 30.7279 30.7279C29.0565 32.3994 27.0722 33.7252 24.8883 34.6298C22.7044 35.5344 20.3638 36 18 36C15.6362 36 13.2956 35.5344 11.1117 34.6298C8.92784 33.7252 6.94353 32.3994 5.27208 30.7279C3.60062 29.0565 2.27475 27.0722 1.37017 24.8883C0.465583 22.7044 -2.06649e-07 20.3638 0 18L9 18C9 19.1819 9.23279 20.3522 9.68508 21.4442C10.1374 22.5361 10.8003 23.5282 11.636 24.364C12.4718 25.1997 13.4639 25.8626 14.5558 26.3149C15.6478 26.7672 16.8181 27 18 27C19.1819 27 20.3522 26.7672 21.4442 26.3149C22.5361 25.8626 23.5282 25.1997 24.364 24.364C25.1997 23.5282 25.8626 22.5361 26.3149 21.4442C26.7672 20.3522 27 19.1819 27 18H36Z" fill="#FE6019"/>
  <path d="M-1.57361e-06 18C-1.78026e-06 15.6362 0.465582 13.2956 1.37016 11.1117C2.27475 8.92784 3.60062 6.94354 5.27207 5.27208C6.94353 3.60063 8.92783 2.27476 11.1117 1.37017C13.2956 0.465586 15.6362 1.78026e-06 18 1.57361e-06C20.3638 1.36696e-06 22.7044 0.465585 24.8883 1.37017C27.0722 2.27475 29.0565 3.60062 30.7279 5.27208C32.3994 6.94353 33.7252 8.92784 34.6298 11.1117C35.5344 13.2956 36 15.6362 36 18L27 18C27 16.8181 26.7672 15.6478 26.3149 14.5558C25.8626 13.4639 25.1997 12.4718 24.364 11.636C23.5282 10.8003 22.5361 10.1374 21.4441 9.68509C20.3522 9.23279 19.1819 9 18 9C16.8181 9 15.6478 9.23279 14.5558 9.68509C13.4639 10.1374 12.4718 10.8003 11.636 11.636C10.8003 12.4718 10.1374 13.4639 9.68508 14.5559C9.23279 15.6478 9 16.8181 9 18L-1.57361e-06 18Z" fill="#FFFAF3"/>

  <text x="50" y="30" font-size="20" font-weight="bold" fill="#FE6019">Hunar Bazaar</text>
</svg>
